# xmcd
# 
# Track frame offsets:
#     150
#     11099
#     31011
#     58602
#     81389
#     95462
#     117200
#     133840
#     147179
#     164459
#     174744
#     199764
#     220167
#     235874
#     254716
#     270821
#     294553
#     318118
# 
# Disc length: 4437
# 
# Revision: 0
# Processed by: cddbd v1.5.2PL0 Copyright (c) Steve Scherf et al.
# Submitted via: fre:ac v1.0.31
# 
DISCID=02115312
DTITLE=GOSPEL TRAIN - Seelenfutter
DYEAR=2018
DGENRE=Gospel
TTITLE0=Django
TTITLE1=Freedom
TTITLE2=Run
TTITLE3=Land Unter
TTITLE4=Valerie
TTITLE5=Photograph
TTITLE6=The New Millennium
TTITLE7=Can't Help Falling In Love
TTITLE8=Price Tag
TTITLE9=Cruisin For A Bruisin
TTITLE10=Hallelujah
TTITLE11=Goodbye Sailor
TTITLE12=Crazy
TTITLE13=Proud Mary
TTITLE14=River Deep
TTITLE15=Skyfall
TTITLE16=Into The West
TTITLE17=When The Music Fades
EXTD=
EXTT0=
EXTT1=
EXTT2=
EXTT3=
EXTT4=
EXTT5=
EXTT6=
EXTT7=
EXTT8=
EXTT9=
EXTT10=
EXTT11=
EXTT12=
EXTT13=
EXTT14=
EXTT15=
EXTT16=
EXTT17=
PLAYORDER=
